<?xml version="1.0" encoding="UTF-8"?>
<svg width="1457px" height="619px" viewBox="0 0 1457 619" version="1.1" xmlns="http://www.w3.org/2000/svg" xmlns:xlink="http://www.w3.org/1999/xlink">
    <!-- Generator: Sketch 63.1 (92452) - https://sketch.com -->
    <title>fh-guide-indigo-300</title>
    <desc>Created with Sketch.</desc>
    <g id="fh-guide-indigo-300" stroke="none" stroke-width="1" fill="none" fill-rule="evenodd">
        <path d="M70.6960952,384.902065 L70.6960952,263.582945 L117.293521,263.582945 L117.293521,240.998001 L0,240.998001 L0,263.582945 L46.5974263,263.582945 L46.5974263,384.902065 L70.6960952,384.902065 Z M157.491301,384.902065 L157.491301,329.439041 C157.491301,322.843438 158.224594,317.43038 159.69118,313.199867 C161.157765,308.969354 163.107658,305.638241 165.540857,303.206529 C167.974056,300.774817 170.690572,299.059294 173.690406,298.05996 C176.690241,297.060626 179.723407,296.560959 182.789904,296.560959 C188.522921,296.560959 193.072669,297.793471 196.43915,300.258494 C199.805631,302.723518 202.338824,305.871419 204.03873,309.702199 C205.738636,313.532978 206.82191,317.513658 207.288551,321.644237 C207.755192,325.774817 207.988512,329.538974 207.988512,332.936709 L207.988512,332.936709 L207.988512,384.902065 L232.387164,384.902065 L232.387164,324.642239 C232.387164,322.043971 232.17051,318.662891 231.7372,314.499001 C231.303891,310.33511 230.353943,305.921386 228.887358,301.257828 C227.420772,296.59427 225.154231,292.197202 222.087733,288.066622 C219.021236,283.936043 214.888131,280.538308 209.688418,277.873418 C204.488705,275.208528 197.88907,273.876083 189.889512,273.876083 C179.756738,273.876083 171.223876,276.091272 164.290926,280.521652 C160.730762,282.796712 157.614462,285.471445 154.942026,288.54585 L154.590461,288.957029 L154.591461,240.998001 L133.092649,240.998001 L133.092649,384.902065 L157.491301,384.902065 Z M356.380316,337.633578 C357.313598,324.708861 355.880344,313.483011 352.080553,303.956029 C348.280763,294.429047 342.464418,287.050633 334.631517,281.820786 C326.798616,276.590939 317.282475,273.976016 306.083094,273.976016 C295.483679,273.976016 286.150862,276.374417 278.08464,281.171219 C270.018419,285.968021 263.718767,292.713524 259.185684,301.407728 C254.652601,310.101932 252.38606,320.345103 252.38606,332.137242 C252.38606,343.063291 254.702599,352.723518 259.335676,361.117921 C263.968753,369.512325 270.418397,376.074617 278.684607,380.804797 C286.950817,385.534977 296.550287,387.900067 307.483017,387.900067 C317.882442,387.900067 327.398583,385.201865 336.03144,379.805463 C344.664296,374.409061 351.047277,366.847435 355.180382,357.120586 L355.180382,357.120586 L331.381697,349.925383 C329.048492,354.922052 325.732009,358.736176 321.432246,361.367755 C317.132484,363.999334 312.0161,365.315123 306.083094,365.315123 C296.883602,365.315123 289.883989,362.317122 285.084254,356.321119 C281.340461,351.644237 279.056747,345.467635 278.233112,337.791312 L278.216633,337.633578 L344.580968,337.633578 L356.380316,337.633578 Z M331.918667,319.445703 L278.804601,319.445703 L278.845841,319.212445 C279.925071,313.262565 281.913127,308.378642 284.810009,304.560674 L285.084254,304.205863 C289.883989,298.109927 297.216917,295.061959 307.083039,295.061959 C315.81589,295.061959 322.215536,297.76016 326.281978,303.156562 C329.120815,306.923862 330.984982,312.233447 331.874478,319.085317 L331.918667,319.445703 Z M542.872225,384.902065 L542.872225,324.942039 L593.46943,324.942039 L593.46943,300.958028 L542.872225,300.958028 L542.872225,265.081945 L605.468767,265.081945 L605.468767,240.998001 L518.773556,240.998001 L518.773556,384.902065 L542.872225,384.902065 Z M647.566442,384.902065 L647.566442,324.142572 L715.762675,324.142572 L715.762675,384.902065 L739.76135,384.902065 L739.76135,240.998001 L715.762675,240.998001 L715.762675,301.557628 L647.566442,301.557628 L647.566442,240.998001 L623.467773,240.998001 L623.467773,384.902065 L647.566442,384.902065 Z M967.151,387.900067 C981.083563,387.900067 993.049569,384.902065 1003.04902,378.906063 C1013.04846,372.91006 1020.73137,364.632245 1026.09774,354.072618 C1031.46411,343.512991 1034.1473,331.437708 1034.1473,317.846769 C1034.1473,317.447035 1034.11397,316.214524 1034.0473,314.149234 C1033.98064,312.083944 1033.88065,310.518321 1033.74732,309.452365 L1033.74732,309.452365 L982.750138,309.452365 L982.750138,328.339773 L1008.14874,328.339773 C1006.9488,336.600933 1004.6156,343.47968 1001.14912,348.976016 C997.682647,354.472352 993.216227,358.56962 987.749862,361.267821 C982.283497,363.966023 975.917182,365.281812 968.650917,365.21519 C958.984784,365.081945 950.935229,362.8501 944.502251,358.519654 C938.069273,354.189207 933.252872,348.143238 930.053049,340.381746 C926.853225,332.620253 925.253314,323.476349 925.253314,312.950033 C925.253314,302.423718 926.869891,293.229847 930.103046,285.368421 C933.336201,277.506995 938.152601,271.411059 944.552248,267.080613 C950.951894,262.750167 958.984784,260.651566 968.650917,260.78481 C978.250387,260.78481 986.14995,263.333111 992.349608,268.429714 C998.549265,273.526316 1003.01569,280.338441 1005.74887,288.866089 L1005.74887,288.866089 L1030.34751,284.968688 C1026.68104,270.111925 1019.66477,258.56962 1009.29867,250.341772 C998.932578,242.113924 984.883354,238 967.151,238 C954.351707,238 942.852342,240.981346 932.652905,246.944037 C922.453468,252.906729 914.420579,261.467688 908.554236,272.626915 C902.687894,283.786143 899.754722,297.227182 899.754722,312.950033 C899.754722,324.942039 901.48796,335.584943 904.954435,344.878748 C908.42091,354.172552 913.237311,362.017322 919.403637,368.413058 C925.569963,374.808794 932.736234,379.655563 940.902449,382.953364 C949.068665,386.251166 957.818182,387.900067 967.151,387.900067 Z M1094.64396,388 C1104.77673,388 1113.30959,385.78481 1120.24254,381.35443 C1123.80271,379.079371 1126.91901,376.404638 1129.59144,373.330233 L1129.94101,372.922052 L1129.94201,384.902065 L1151.24083,384.902065 L1151.24083,276.974017 L1127.04217,276.974017 L1127.04217,332.437042 C1127.04217,338.966023 1126.30888,344.362425 1124.84229,348.626249 C1123.3757,352.890073 1121.42581,356.237841 1118.99261,358.669554 C1116.55941,361.101266 1113.8429,362.816789 1110.84306,363.816123 C1107.84323,364.815456 1104.81006,365.315123 1101.74357,365.315123 C1096.01055,365.315123 1091.4608,364.082612 1088.09432,361.617588 C1084.72784,359.152565 1082.19465,356.004664 1080.49474,352.173884 C1078.79483,348.343105 1077.71156,344.345769 1077.24492,340.181879 C1076.77828,336.017988 1076.54496,332.270486 1076.54496,328.939374 L1076.54496,328.939374 L1076.54496,276.974017 L1052.14631,276.974017 L1052.14631,337.233844 C1052.14631,339.832112 1052.36296,343.213191 1052.79627,347.377082 C1053.22958,351.540973 1054.17953,355.954697 1055.64611,360.618254 C1057.1127,365.281812 1059.37924,369.678881 1062.44574,373.80946 C1065.51223,377.94004 1069.64534,381.337775 1074.84505,384.002665 C1080.04476,386.667555 1086.6444,388 1094.64396,388 Z M1205.33784,260.584943 L1205.33784,238.499667 L1181.23917,238.499667 L1181.23917,260.584943 L1205.33784,260.584943 Z M1205.33784,384.902065 L1205.33784,276.974017 L1181.23917,276.974017 L1181.23917,384.902065 L1205.33784,384.902065 Z M1278.6338,387.900067 C1289.16655,387.900067 1297.99939,385.401732 1305.13233,380.405063 C1306.52412,379.430104 1307.84866,378.386025 1309.10594,377.272827 L1309.43109,376.980346 L1309.43209,384.902065 L1330.73092,384.902065 L1330.73092,240.998001 L1306.43226,240.998001 L1306.43126,282.192538 L1306.41464,282.179172 C1306.24469,282.05055 1306.07369,281.923062 1305.90163,281.796708 L1305.38232,281.421053 C1298.41604,276.457695 1289.79985,273.976016 1279.53375,273.976016 C1269.33431,273.976016 1260.46813,276.457695 1252.93521,281.421053 C1245.4023,286.38441 1239.58595,293.146569 1235.48618,301.707528 C1231.38641,310.268488 1229.33652,320.011992 1229.33652,330.938041 C1229.33652,341.730846 1231.36974,351.424384 1235.43618,360.018654 C1239.50262,368.612925 1245.23564,375.408394 1252.63523,380.405063 C1260.03482,385.401732 1268.70101,387.900067 1278.6338,387.900067 Z M1282.33359,366.314457 C1276.06727,366.314457 1270.90089,364.748834 1266.83445,361.617588 C1262.76801,358.486342 1259.75151,354.239174 1257.78495,348.876083 C1255.81839,343.512991 1254.83511,337.533644 1254.83511,330.938041 C1254.83511,324.409061 1255.83505,318.463025 1257.83494,313.099933 C1259.83483,307.736842 1262.93466,303.473018 1267.13443,300.308461 C1271.3342,297.143904 1276.66724,295.561626 1283.13355,295.561626 C1289.26654,295.561626 1294.26627,297.043971 1298.13272,300.008661 C1301.99917,302.973351 1304.84901,307.103931 1306.68225,312.4004 C1308.51548,317.696869 1309.43209,323.876083 1309.43209,330.938041 C1309.43209,337.933378 1308.51548,344.095936 1306.68225,349.425716 C1304.84901,354.755496 1301.94917,358.902732 1297.98273,361.867422 C1294.01628,364.832112 1288.7999,366.314457 1282.33359,366.314457 Z M1456.72396,337.633578 C1457.65724,324.708861 1456.22399,313.483011 1452.4242,303.956029 C1448.62441,294.429047 1442.80806,287.050633 1434.97516,281.820786 C1427.14226,276.590939 1417.62612,273.976016 1406.42674,273.976016 C1395.82732,273.976016 1386.4945,276.374417 1378.42828,281.171219 C1370.36206,285.968021 1364.06241,292.713524 1359.52933,301.407728 C1354.99624,310.101932 1352.7297,320.345103 1352.7297,332.137242 C1352.7297,343.063291 1355.04624,352.723518 1359.67932,361.117921 C1364.3124,369.512325 1370.76204,376.074617 1379.02825,380.804797 C1387.29446,385.534977 1396.89393,387.900067 1407.82666,387.900067 C1418.22609,387.900067 1427.74223,385.201865 1436.37508,379.805463 C1445.00794,374.409061 1451.39092,366.847435 1455.52403,357.120586 L1455.52403,357.120586 L1431.72534,349.925383 C1429.39214,354.922052 1426.07565,358.736176 1421.77589,361.367755 C1417.47613,363.999334 1412.35974,365.315123 1406.42674,365.315123 C1397.22725,365.315123 1390.22763,362.317122 1385.4279,356.321119 C1381.6841,351.644237 1379.40039,345.467635 1378.57676,337.791312 L1378.56028,337.633578 L1444.92461,337.633578 L1456.72396,337.633578 Z M1432.26231,319.445703 L1379.14824,319.445703 L1379.18948,319.212445 C1380.26871,313.262565 1382.25677,308.378642 1385.15365,304.560674 L1385.4279,304.205863 C1390.22763,298.109927 1397.56056,295.061959 1407.42668,295.061959 C1416.15953,295.061959 1422.55918,297.76016 1426.62562,303.156562 C1429.46446,306.923862 1431.32862,312.233447 1432.21812,319.085317 L1432.26231,319.445703 Z" id="TheFHGuide" fill="#A5B4FC" fill-rule="nonzero"></path>
        <g id="loupe" transform="translate(429.000000, 107.000000)" fill="#A5B4FC" fill-rule="nonzero">
            <path d="M505.749,475.587 L360.149,329.987 C388.352,295.15 405.333,250.883 405.333,202.67 C405.333,90.926 314.41,0.003 202.666,0.003 C90.922,0.003 0,90.925 0,202.669 C0,314.413 90.923,405.336 202.667,405.336 C250.88,405.336 295.147,388.355 329.984,360.152 L475.584,505.752 C479.744,509.912 485.205,512.003 490.667,512.003 C496.129,512.003 501.59,509.912 505.75,505.752 C514.091,497.411 514.091,483.928 505.749,475.587 Z M202.667,362.669 C114.432,362.669 42.667,290.904 42.667,202.669 C42.667,114.434 114.432,42.669 202.667,42.669 C290.902,42.669 362.667,114.434 362.667,202.669 C362.667,290.904 290.901,362.669 202.667,362.669 Z" id="Shape"></path>
        </g>
    </g>
</svg>