<?xml version="1.0" encoding="UTF-8"?>
<svg width="1457px" height="619px" viewBox="0 0 1457 619" version="1.1" xmlns="http://www.w3.org/2000/svg" xmlns:xlink="http://www.w3.org/1999/xlink">
    <!-- Generator: Sketch 63.1 (92452) - https://sketch.com -->
    <title>fh-guide-cyan-600</title>
    <desc>Created with Sketch.</desc>
    <g id="fh-guide-cyan-600" stroke="none" stroke-width="1" fill="none" fill-rule="evenodd">
        <path d="M80.6960952,384.902065 L80.6960952,263.582945 L127.293521,263.582945 L127.293521,240.998001 L10,240.998001 L10,263.582945 L56.5974263,263.582945 L56.5974263,384.902065 L80.6960952,384.902065 Z M167.491301,384.902065 L167.491301,329.439041 C167.491301,322.843438 168.224594,317.43038 169.69118,313.199867 C171.157765,308.969354 173.107658,305.638241 175.540857,303.206529 C177.974056,300.774817 180.690572,299.059294 183.690406,298.05996 C186.690241,297.060626 189.723407,296.560959 192.789904,296.560959 C198.522921,296.560959 203.072669,297.793471 206.43915,300.258494 C209.805631,302.723518 212.338824,305.871419 214.03873,309.702199 C215.738636,313.532978 216.82191,317.513658 217.288551,321.644237 C217.755192,325.774817 217.988512,329.538974 217.988512,332.936709 L217.988512,332.936709 L217.988512,384.902065 L242.387164,384.902065 L242.387164,324.642239 C242.387164,322.043971 242.17051,318.662891 241.7372,314.499001 C241.303891,310.33511 240.353943,305.921386 238.887358,301.257828 C237.420772,296.59427 235.154231,292.197202 232.087733,288.066622 C229.021236,283.936043 224.888131,280.538308 219.688418,277.873418 C214.488705,275.208528 207.88907,273.876083 199.889512,273.876083 C189.756738,273.876083 181.223876,276.091272 174.290926,280.521652 C170.730762,282.796712 167.614462,285.471445 164.942026,288.54585 L164.590461,288.957029 L164.591461,240.998001 L143.092649,240.998001 L143.092649,384.902065 L167.491301,384.902065 Z M366.380316,337.633578 C367.313598,324.708861 365.880344,313.483011 362.080553,303.956029 C358.280763,294.429047 352.464418,287.050633 344.631517,281.820786 C336.798616,276.590939 327.282475,273.976016 316.083094,273.976016 C305.483679,273.976016 296.150862,276.374417 288.08464,281.171219 C280.018419,285.968021 273.718767,292.713524 269.185684,301.407728 C264.652601,310.101932 262.38606,320.345103 262.38606,332.137242 C262.38606,343.063291 264.702599,352.723518 269.335676,361.117921 C273.968753,369.512325 280.418397,376.074617 288.684607,380.804797 C296.950817,385.534977 306.550287,387.900067 317.483017,387.900067 C327.882442,387.900067 337.398583,385.201865 346.03144,379.805463 C354.664296,374.409061 361.047277,366.847435 365.180382,357.120586 L365.180382,357.120586 L341.381697,349.925383 C339.048492,354.922052 335.732009,358.736176 331.432246,361.367755 C327.132484,363.999334 322.0161,365.315123 316.083094,365.315123 C306.883602,365.315123 299.883989,362.317122 295.084254,356.321119 C291.340461,351.644237 289.056747,345.467635 288.233112,337.791312 L288.216633,337.633578 L354.580968,337.633578 L366.380316,337.633578 Z M341.918667,319.445703 L288.804601,319.445703 L288.845841,319.212445 C289.925071,313.262565 291.913127,308.378642 294.810009,304.560674 L295.084254,304.205863 C299.883989,298.109927 307.216917,295.061959 317.083039,295.061959 C325.81589,295.061959 332.215536,297.76016 336.281978,303.156562 C339.120815,306.923862 340.984982,312.233447 341.874478,319.085317 L341.918667,319.445703 Z M542.872225,384.902065 L542.872225,324.942039 L593.46943,324.942039 L593.46943,300.958028 L542.872225,300.958028 L542.872225,265.081945 L605.468767,265.081945 L605.468767,240.998001 L518.773556,240.998001 L518.773556,384.902065 L542.872225,384.902065 Z M647.566442,384.902065 L647.566442,324.142572 L715.762675,324.142572 L715.762675,384.902065 L739.76135,384.902065 L739.76135,240.998001 L715.762675,240.998001 L715.762675,301.557628 L647.566442,301.557628 L647.566442,240.998001 L623.467773,240.998001 L623.467773,384.902065 L647.566442,384.902065 Z M957.151,387.900067 C971.083563,387.900067 983.049569,384.902065 993.049017,378.906063 C1003.04846,372.91006 1010.73137,364.632245 1016.09774,354.072618 C1021.46411,343.512991 1024.1473,331.437708 1024.1473,317.846769 C1024.1473,317.447035 1024.11397,316.214524 1024.0473,314.149234 C1023.98064,312.083944 1023.88065,310.518321 1023.74732,309.452365 L1023.74732,309.452365 L972.750138,309.452365 L972.750138,328.339773 L998.148735,328.339773 C996.948802,336.600933 994.615597,343.47968 991.149122,348.976016 C987.682647,354.472352 983.216227,358.56962 977.749862,361.267821 C972.283497,363.966023 965.917182,365.281812 958.650917,365.21519 C948.984784,365.081945 940.935229,362.8501 934.502251,358.519654 C928.069273,354.189207 923.252872,348.143238 920.053049,340.381746 C916.853225,332.620253 915.253314,323.476349 915.253314,312.950033 C915.253314,302.423718 916.869891,293.229847 920.103046,285.368421 C923.336201,277.506995 928.152601,271.411059 934.552248,267.080613 C940.951894,262.750167 948.984784,260.651566 958.650917,260.78481 C968.250387,260.78481 976.14995,263.333111 982.349608,268.429714 C988.549265,273.526316 993.015685,280.338441 995.748868,288.866089 L995.748868,288.866089 L1020.34751,284.968688 C1016.68104,270.111925 1009.66477,258.56962 999.298672,250.341772 C988.932578,242.113924 974.883354,238 957.151,238 C944.351707,238 932.852342,240.981346 922.652905,246.944037 C912.453468,252.906729 904.420579,261.467688 898.554236,272.626915 C892.687894,283.786143 889.754722,297.227182 889.754722,312.950033 C889.754722,324.942039 891.48796,335.584943 894.954435,344.878748 C898.42091,354.172552 903.237311,362.017322 909.403637,368.413058 C915.569963,374.808794 922.736234,379.655563 930.902449,382.953364 C939.068665,386.251166 947.818182,387.900067 957.151,387.900067 Z M1084.64396,388 C1094.77673,388 1103.30959,385.78481 1110.24254,381.35443 C1113.80271,379.079371 1116.91901,376.404638 1119.59144,373.330233 L1119.94101,372.922052 L1119.94201,384.902065 L1141.24083,384.902065 L1141.24083,276.974017 L1117.04217,276.974017 L1117.04217,332.437042 C1117.04217,338.966023 1116.30888,344.362425 1114.84229,348.626249 C1113.3757,352.890073 1111.42581,356.237841 1108.99261,358.669554 C1106.55941,361.101266 1103.8429,362.816789 1100.84306,363.816123 C1097.84323,364.815456 1094.81006,365.315123 1091.74357,365.315123 C1086.01055,365.315123 1081.4608,364.082612 1078.09432,361.617588 C1074.72784,359.152565 1072.19465,356.004664 1070.49474,352.173884 C1068.79483,348.343105 1067.71156,344.345769 1067.24492,340.181879 C1066.77828,336.017988 1066.54496,332.270486 1066.54496,328.939374 L1066.54496,328.939374 L1066.54496,276.974017 L1042.14631,276.974017 L1042.14631,337.233844 C1042.14631,339.832112 1042.36296,343.213191 1042.79627,347.377082 C1043.22958,351.540973 1044.17953,355.954697 1045.64611,360.618254 C1047.1127,365.281812 1049.37924,369.678881 1052.44574,373.80946 C1055.51223,377.94004 1059.64534,381.337775 1064.84505,384.002665 C1070.04476,386.667555 1076.6444,388 1084.64396,388 Z M1195.33784,260.584943 L1195.33784,238.499667 L1171.23917,238.499667 L1171.23917,260.584943 L1195.33784,260.584943 Z M1195.33784,384.902065 L1195.33784,276.974017 L1171.23917,276.974017 L1171.23917,384.902065 L1195.33784,384.902065 Z M1268.6338,387.900067 C1279.16655,387.900067 1287.99939,385.401732 1295.13233,380.405063 C1296.52412,379.430104 1297.84866,378.386025 1299.10594,377.272827 L1299.43109,376.980346 L1299.43209,384.902065 L1320.73092,384.902065 L1320.73092,240.998001 L1296.43226,240.998001 L1296.43126,282.192538 L1296.41464,282.179172 C1296.24469,282.05055 1296.07369,281.923062 1295.90163,281.796708 L1295.38232,281.421053 C1288.41604,276.457695 1279.79985,273.976016 1269.53375,273.976016 C1259.33431,273.976016 1250.46813,276.457695 1242.93521,281.421053 C1235.4023,286.38441 1229.58595,293.146569 1225.48618,301.707528 C1221.38641,310.268488 1219.33652,320.011992 1219.33652,330.938041 C1219.33652,341.730846 1221.36974,351.424384 1225.43618,360.018654 C1229.50262,368.612925 1235.23564,375.408394 1242.63523,380.405063 C1250.03482,385.401732 1258.70101,387.900067 1268.6338,387.900067 Z M1272.33359,366.314457 C1266.06727,366.314457 1260.90089,364.748834 1256.83445,361.617588 C1252.76801,358.486342 1249.75151,354.239174 1247.78495,348.876083 C1245.81839,343.512991 1244.83511,337.533644 1244.83511,330.938041 C1244.83511,324.409061 1245.83505,318.463025 1247.83494,313.099933 C1249.83483,307.736842 1252.93466,303.473018 1257.13443,300.308461 C1261.3342,297.143904 1266.66724,295.561626 1273.13355,295.561626 C1279.26654,295.561626 1284.26627,297.043971 1288.13272,300.008661 C1291.99917,302.973351 1294.84901,307.103931 1296.68225,312.4004 C1298.51548,317.696869 1299.43209,323.876083 1299.43209,330.938041 C1299.43209,337.933378 1298.51548,344.095936 1296.68225,349.425716 C1294.84901,354.755496 1291.94917,358.902732 1287.98273,361.867422 C1284.01628,364.832112 1278.7999,366.314457 1272.33359,366.314457 Z M1446.72396,337.633578 C1447.65724,324.708861 1446.22399,313.483011 1442.4242,303.956029 C1438.62441,294.429047 1432.80806,287.050633 1424.97516,281.820786 C1417.14226,276.590939 1407.62612,273.976016 1396.42674,273.976016 C1385.82732,273.976016 1376.4945,276.374417 1368.42828,281.171219 C1360.36206,285.968021 1354.06241,292.713524 1349.52933,301.407728 C1344.99624,310.101932 1342.7297,320.345103 1342.7297,332.137242 C1342.7297,343.063291 1345.04624,352.723518 1349.67932,361.117921 C1354.3124,369.512325 1360.76204,376.074617 1369.02825,380.804797 C1377.29446,385.534977 1386.89393,387.900067 1397.82666,387.900067 C1408.22609,387.900067 1417.74223,385.201865 1426.37508,379.805463 C1435.00794,374.409061 1441.39092,366.847435 1445.52403,357.120586 L1445.52403,357.120586 L1421.72534,349.925383 C1419.39214,354.922052 1416.07565,358.736176 1411.77589,361.367755 C1407.47613,363.999334 1402.35974,365.315123 1396.42674,365.315123 C1387.22725,365.315123 1380.22763,362.317122 1375.4279,356.321119 C1371.6841,351.644237 1369.40039,345.467635 1368.57676,337.791312 L1368.56028,337.633578 L1434.92461,337.633578 L1446.72396,337.633578 Z M1422.26231,319.445703 L1369.14824,319.445703 L1369.18948,319.212445 C1370.26871,313.262565 1372.25677,308.378642 1375.15365,304.560674 L1375.4279,304.205863 C1380.22763,298.109927 1387.56056,295.061959 1397.42668,295.061959 C1406.15953,295.061959 1412.55918,297.76016 1416.62562,303.156562 C1419.46446,306.923862 1421.32862,312.233447 1422.21812,319.085317 L1422.26231,319.445703 Z" id="TheFHGuide" fill="#0891B2" fill-rule="nonzero"></path>
        <g id="loupe" transform="translate(429.000000, 107.000000)" fill="#0891B2" fill-rule="nonzero">
            <path d="M505.749,475.587 L360.149,329.987 C388.352,295.15 405.333,250.883 405.333,202.67 C405.333,90.926 314.41,0.003 202.666,0.003 C90.922,0.003 0,90.925 0,202.669 C0,314.413 90.923,405.336 202.667,405.336 C250.88,405.336 295.147,388.355 329.984,360.152 L475.584,505.752 C479.744,509.912 485.205,512.003 490.667,512.003 C496.129,512.003 501.59,509.912 505.75,505.752 C514.091,497.411 514.091,483.928 505.749,475.587 Z M202.667,362.669 C114.432,362.669 42.667,290.904 42.667,202.669 C42.667,114.434 114.432,42.669 202.667,42.669 C290.902,42.669 362.667,114.434 362.667,202.669 C362.667,290.904 290.901,362.669 202.667,362.669 Z" id="Shape"></path>
        </g>
    </g>
</svg>